<?xml version="1.0" encoding="iso-8859-1"?>
<!-- Generator: Adobe Illustrator 19.0.0, SVG Export Plug-In . SVG Version: 6.00 Build 0)  -->
<svg version="1.1" id="Layer_1" xmlns="http://www.w3.org/2000/svg" xmlns:xlink="http://www.w3.org/1999/xlink" x="0px" y="0px"
	 viewBox="0 0 512 512" style="enable-background:new 0 0 512 512;" xml:space="preserve">
<g>
	<g>
		<path d="M483.184,190.536l-28.04-2.808c-2.84-8.272-6.2-16.368-10.072-24.248l17.888-21.872l18.328-22.408l-20.464-20.472
			l-47.488-47.52l-20.488-20.496l-22.424,18.36l-21.792,17.84c-7.888-3.88-15.984-7.256-24.272-10.104l-2.8-27.992L318.688,0h-28.96
			h-33.576h-33.864h-28.96l-2.888,28.816l-2.8,27.984c-8.288,2.856-16.4,6.224-24.288,10.112L141.576,49.08l-22.424-18.36
			L98.664,51.216l-47.488,47.52l-20.456,20.48l18.328,22.408l17.88,21.856c-3.872,7.888-7.232,15.984-10.08,24.264l-28.032,2.808
			L0,193.432v28.96v67.2v28.96l28.816,2.88l28.024,2.808c2.84,8.288,6.208,16.392,10.088,24.288l-17.872,21.856l-18.336,22.4
			l20.464,20.472l47.488,47.52l20.488,20.496l22.424-18.36l21.776-17.824c7.896,3.888,16.008,7.264,24.304,10.12l2.8,27.984
			l2.88,28.808h28.96h33.584h33.864h28.96l2.888-28.816l2.8-27.992c8.296-2.856,16.4-6.232,24.288-10.12l21.784,17.84l22.424,18.36
			l20.488-20.496l47.488-47.52l20.456-20.472l-18.32-22.408l-17.896-21.888c3.864-7.88,7.224-15.976,10.064-24.248l28.04-2.824
			L512,318.52v-28.944v-67.2v-28.96L483.184,190.536z M480,289.576l-49.696,5c-4.552,20.68-12.712,39.976-23.76,57.304
			l31.688,38.752l-47.488,47.52l-38.688-31.672c-17.328,11.096-36.64,19.296-57.336,23.88L289.744,480H256.16h-0.28h-33.584
			l-4.968-49.64c-20.712-4.568-40.024-12.768-57.352-23.864l-38.672,31.664l-47.488-47.52l31.672-38.72
			c-11.056-17.336-19.24-36.632-23.792-57.344L32,289.592v-67.2l49.696-4.976c4.568-20.696,12.744-40.008,23.792-57.328
			l-31.672-38.72l47.488-47.52l38.672,31.656c17.312-11.08,36.624-19.28,57.336-23.864L222.288,32h33.584h0.28h33.576l4.968,49.64
			c20.704,4.584,40.016,12.784,57.328,23.864l38.688-31.672l47.488,47.52l-31.688,38.736c11.04,17.32,19.224,36.616,23.776,57.32
			L480,222.376V289.576z"/>
	</g>
</g>
<g>
	<g>
		<path d="M256,157.272c-54.448,0-98.736,44.288-98.736,98.736c0,54.44,44.288,98.728,98.736,98.728S354.736,310.44,354.736,256
			S310.448,157.272,256,157.272z M256,322.728c-36.8,0-66.736-29.928-66.736-66.728S219.2,189.272,256,189.272
			s66.736,29.936,66.736,66.736S292.8,322.728,256,322.728z"/>
	</g>
</g>
<g>
</g>
<g>
</g>
<g>
</g>
<g>
</g>
<g>
</g>
<g>
</g>
<g>
</g>
<g>
</g>
<g>
</g>
<g>
</g>
<g>
</g>
<g>
</g>
<g>
</g>
<g>
</g>
<g>
</g>
</svg>
